<svg viewBox="0 0 320 180" xmlns="http://www.w3.org/2000/svg" role="img" aria-label="Crazy Monkey">
  <defs>
    <filter id="gl" x="-40%" y="-40%" width="180%" height="180%"><feGaussianBlur stdDeviation="3.2" result="b"/><feMerge><feMergeNode in="b"/><feMergeNode in="SourceGraphic"/></feMerge></filter>
    <filter id="glS" x="-40%" y="-40%" width="180%" height="180%"><feGaussianBlur stdDeviation="1.8" result="b"/><feMerge><feMergeNode in="b"/><feMergeNode in="SourceGraphic"/></feMerge></filter>
    <linearGradient id="bg" x1="0" y1="0" x2="1" y2="1"><stop offset="0" stop-color="#15803d"/><stop offset=".5" stop-color="#166534"/><stop offset="1" stop-color="#052e16"/></linearGradient>
  </defs>
  <rect width="320" height="180" fill="url(#bg)"/>
  <g opacity=".16" fill="#86efac"><polygon points="0,0 100,0 36,180 0,180"/><polygon points="320,0 220,0 290,180 320,180"/></g>
  <ellipse cx="160" cy="60" rx="120" ry="54" fill="#facc15" opacity=".18" filter="url(#gl)"/>
  <g fill="#fff" opacity=".5"><circle cx="44" cy="28" r="1.4"/><circle cx="276" cy="32" r="1.4"/><circle cx="300" cy="70" r="1.1"/></g>
  <path d="M132 40 a44 44 0 0 0 50 46 a9 9 0 0 1 -9 7 a48 48 0 0 1 -47 -47 a8 8 0 0 1 6 -12 z" fill="#facc15" stroke="#a16207" stroke-width="2" filter="url(#gl)"/>
  <text x="160" y="134" text-anchor="middle" font-family="Segoe UI,Arial,sans-serif" font-size="18" font-weight="800" fill="#fff" filter="url(#glS)">CRAZY MONKEY</text>
  <rect x="86" y="147" width="148" height="2.6" rx="1.3" fill="#facc15" filter="url(#glS)"/>
  <text x="160" y="166" text-anchor="middle" font-family="Segoe UI,Arial,sans-serif" font-size="8" fill="#dcfce7" letter-spacing="2">IGROSOFT</text>
</svg>
